<?xml version="1.0" encoding="utf-8"?>
<!-- Generator: Adobe Illustrator 25.4.1, SVG Export Plug-In . SVG Version: 6.00 Build 0)  -->
<svg version="1.1" id="Layer_1" xmlns="http://www.w3.org/2000/svg" xmlns:xlink="http://www.w3.org/1999/xlink" x="0px" y="0px"
	 viewBox="0 0 60 60" style="enable-background:new 0 0 60 60;" xml:space="preserve">
<style type="text/css">
	.st0{fill-rule:evenodd;clip-rule:evenodd;stroke:#000000;stroke-width:1.5;stroke-linejoin:round;}
	.st1{fill:none;stroke:#FFFFFF;stroke-width:1.5;stroke-linecap:round;}
</style>
<g>
	<g>
		<path class="st0" d="M9.93,52.11c5.21-1.49,15.53,0.66,20.73-3.07c5.21,3.73,15.53,1.58,20.73,3.07c0,0,2.53,0.83,4.61,3.07
			c-1.04,1.49-2.53,1.52-4.61,0.77c-5.21-1.49-15.53,0.71-20.73-1.54c-5.21,2.24-15.53,0.05-20.73,1.54
			c-2.07,0.75-3.56,0.72-4.61-0.77C7.4,52.93,9.93,52.11,9.93,52.11z"/>
		<path class="st0" d="M19.14,45.96c3.84,3.84,19.2,3.84,23.04,0c0.77-2.3,0-3.07,0-3.07c0-3.84-3.84-6.14-3.84-6.14
			c8.45-2.3,9.21-17.66-7.68-23.8c-16.89,6.14-16.12,21.5-7.68,23.8c0,0-3.84,2.3-3.84,6.14C19.14,42.89,18.38,43.66,19.14,45.96z"
			/>
		<path class="st0" d="M34.5,9.11c0,2.12-1.72,3.84-3.84,3.84s-3.84-1.72-3.84-3.84s1.72-3.84,3.84-3.84S34.5,6.99,34.5,9.11z"/>
	</g>
	<path class="st1" d="M22.98,36.75h15.36 M19.14,42.89h23.04 M30.66,20.62v7.68 M26.82,24.46h7.68"/>
</g>
</svg>
