<?xml version="1.0" encoding="utf-8"?>
<!-- Generator: Adobe Illustrator 25.4.1, SVG Export Plug-In . SVG Version: 6.00 Build 0)  -->
<svg version="1.1" id="Layer_1" xmlns="http://www.w3.org/2000/svg" xmlns:xlink="http://www.w3.org/1999/xlink" x="0px" y="0px"
	 viewBox="0 0 60 60" style="enable-background:new 0 0 60 60;" xml:space="preserve">
<style type="text/css">
	.st0{fill-rule:evenodd;clip-rule:evenodd;fill:#FFFFFF;stroke:#000000;stroke-width:1.5;stroke-linejoin:round;}
	.st1{fill:none;stroke:#000000;stroke-width:1.5;stroke-linecap:round;}
</style>
<g>
	<g>
		<path class="st0" d="M7.1,53.78c5.69-1.68,16.97,0.74,22.66-3.46c5.69,4.2,16.97,1.78,22.66,3.46c0,0,2.77,0.93,5.03,3.46
			c-1.14,1.68-2.77,1.71-5.03,0.87c-5.69-1.68-16.97,0.8-22.66-1.73C24.07,58.9,12.79,56.43,7.1,58.1
			c-2.27,0.85-3.89,0.81-5.03-0.87C4.33,54.71,7.1,53.78,7.1,53.78z"/>
		<path class="st0" d="M17.17,46.86c4.2,4.33,20.98,4.33,25.17,0c0.84-2.6,0-3.46,0-3.46c0-4.33-4.2-6.92-4.2-6.92
			c9.23-2.6,10.07-19.9-8.39-26.82c-18.46,6.92-17.62,24.23-8.39,26.82c0,0-4.2,2.6-4.2,6.92C17.17,43.4,16.33,44.26,17.17,46.86z"
			/>
		<path class="st0" d="M33.95,5.33c0,2.39-1.88,4.33-4.2,4.33s-4.2-1.94-4.2-4.33S27.44,1,29.76,1S33.95,2.94,33.95,5.33z"/>
	</g>
	<path class="st1" d="M21.37,36.47h16.78 M17.17,43.4h25.17 M29.76,18.3v8.65 M25.56,22.63h8.39"/>
</g>
</svg>
