<?xml version="1.0" encoding="utf-8"?>
<!-- Generator: Adobe Illustrator 25.4.1, SVG Export Plug-In . SVG Version: 6.00 Build 0)  -->
<svg version="1.1" id="Layer_1" xmlns="http://www.w3.org/2000/svg" xmlns:xlink="http://www.w3.org/1999/xlink" x="0px" y="0px"
	 viewBox="0 0 60 60" style="enable-background:new 0 0 60 60;" xml:space="preserve">
<style type="text/css">
	.st0{fill:none;stroke:#000000;stroke-width:1.5;stroke-linecap:round;}
	.st1{fill-rule:evenodd;clip-rule:evenodd;fill:#FFFFFF;stroke:#000000;stroke-width:1.5;}
	
		.st2{fill-rule:evenodd;clip-rule:evenodd;fill:#FFFFFF;stroke:#000000;stroke-width:1.5;stroke-linecap:round;stroke-linejoin:round;}
	.st3{fill:none;stroke:#000000;stroke-width:1.5;stroke-linecap:round;stroke-linejoin:round;}
</style>
<g>
	<path class="st0" d="M30,11.09V1.57"/>
	<path class="st0" d="M25.66,4.95h8.68"/>
	<path class="st1" d="M30,33.7c0,0,7.82-12.68,5.21-17.76c0,0-1.74-4.23-5.21-4.23s-5.21,4.23-5.21,4.23
		C22.18,21.02,30,33.7,30,33.7"/>
	<path class="st2" d="M12.63,53.99c9.55,5.92,25.18,5.92,34.73,0V42.15c0,0,15.63-7.61,10.42-17.76
		C50.84,13.41,34.34,18.48,30,31.16v5.92v-5.92C25.66,18.48,9.16,13.41,2.21,24.4C-3,34.54,12.63,42.15,12.63,42.15V53.99"/>
	<path class="st3" d="M12.63,42.15c9.55-5.07,25.18-5.07,34.73,0"/>
	<path class="st3" d="M12.63,48.07c9.55-5.07,25.18-5.07,34.73,0"/>
	<path class="st3" d="M12.63,53.99c9.55-5.07,25.18-5.07,34.73,0"/>
</g>
</svg>
