<?xml version="1.0" encoding="utf-8"?>
<!-- Generator: Adobe Illustrator 25.4.1, SVG Export Plug-In . SVG Version: 6.00 Build 0)  -->
<svg version="1.1" id="Layer_1" xmlns="http://www.w3.org/2000/svg" xmlns:xlink="http://www.w3.org/1999/xlink" x="0px" y="0px"
	 viewBox="0 0 60 60" style="enable-background:new 0 0 60 60;" xml:space="preserve">
<style type="text/css">
	.st0{fill:none;stroke:#000000;stroke-width:1.5;stroke-linecap:round;}
	.st1{fill-rule:evenodd;clip-rule:evenodd;stroke:#000000;stroke-width:1.5;}
	.st2{fill-rule:evenodd;clip-rule:evenodd;stroke:#000000;stroke-width:1.5;stroke-linecap:round;stroke-linejoin:round;}
	.st3{fill:none;stroke:#FFFFFF;stroke-width:1.5;stroke-linecap:round;stroke-linejoin:round;}
</style>
<g>
	<path id="path6570" class="st0" d="M30,10.96V1.37"/>
	<path class="st1" d="M30,33.72c0,0,7.66-12.77,5.11-17.88c0,0-1.7-4.26-5.11-4.26s-5.11,4.26-5.11,4.26
		C22.34,20.95,30,33.72,30,33.72"/>
	<path class="st2" d="M12.97,54.16c9.37,5.96,24.69,5.96,34.06,0V42.24c0,0,15.33-7.66,10.22-17.88C50.43,13.29,34.26,18.4,30,31.17
		v5.96v-5.96C25.74,18.4,9.57,13.29,2.76,24.36c-5.11,10.22,10.22,17.88,10.22,17.88V54.16"/>
	<path class="st0" d="M25.74,4.78h8.51"/>
	<path class="st3" d="M46.18,41.39c0,0,14.47-6.81,10.27-16.43c-6.61-9.96-22.19-3.15-26.44,7.92v3.58v-3.58
		c-4.26-11.07-19.84-17.88-26.44-7.92c-4.21,9.62,10.27,16.43,10.27,16.43"/>
	<path class="st3" d="M12.97,42.24c9.37-5.11,24.69-5.11,34.06,0 M12.97,48.2c9.37-5.11,24.69-5.11,34.06,0 M12.97,54.16
		c9.37-5.11,24.69-5.11,34.06,0"/>
</g>
</svg>
