<?xml version="1.0" encoding="utf-8"?>
<!-- Generator: Adobe Illustrator 25.4.1, SVG Export Plug-In . SVG Version: 6.00 Build 0)  -->
<svg version="1.1" id="Layer_1" xmlns="http://www.w3.org/2000/svg" xmlns:xlink="http://www.w3.org/1999/xlink" x="0px" y="0px"
	 viewBox="0 0 60 60" style="enable-background:new 0 0 60 60;" xml:space="preserve">
<style type="text/css">
	
		.st0{fill-rule:evenodd;clip-rule:evenodd;fill:#FFFFFF;stroke:#000000;stroke-width:1.5;stroke-linecap:round;stroke-linejoin:round;}
	.st1{fill-rule:evenodd;clip-rule:evenodd;stroke:#000000;stroke-width:1.5;stroke-linecap:round;stroke-linejoin:round;}
	
		.st2{fill-rule:evenodd;clip-rule:evenodd;stroke:#000000;stroke-width:1.5;stroke-linecap:round;stroke-linejoin:round;stroke-miterlimit:3.9999;}
</style>
<g>
	<path class="st0" d="M30.25,5.98C49.08,7.78,59.84,20.33,58.95,58H17.69c0-16.14,17.94-11.66,14.35-37.67"/>
	<path class="st0" d="M33.84,20.33c0.68,5.22-9.95,13.22-14.35,16.14c-5.38,3.59-5.06,7.78-8.97,7.17c-1.87-1.69,2.53-5.45,0-5.38
		c-1.79,0,0.34,2.21-1.79,3.59c-1.79,0-7.18,1.79-7.17-7.17c0-3.59,10.76-21.52,10.76-21.52s3.39-3.41,3.59-6.28
		C14.59,5.1,15,3.29,15,1.5c1.79-1.79,5.38,4.48,5.38,4.48h3.59c0,0,1.4-3.57,4.48-5.38c1.79,0,1.79,5.38,1.79,5.38"/>
	<path class="st1" d="M7.83,33.79c0,0.5-0.4,0.9-0.9,0.9s-0.9-0.4-0.9-0.9c0-0.5,0.4-0.9,0.9-0.9S7.83,33.29,7.83,33.79z"/>
	<path class="st2" d="M17.57,16.3c-0.74,1.29-1.69,2.13-2.12,1.88c-0.43-0.25-0.17-1.49,0.57-2.78c0.74-1.29,1.69-2.13,2.12-1.88
		C18.57,13.77,18.32,15.01,17.57,16.3z"/>
</g>
</svg>
