<?xml version="1.0" encoding="utf-8"?>
<!-- Generator: Adobe Illustrator 25.4.1, SVG Export Plug-In . SVG Version: 6.00 Build 0)  -->
<svg version="1.1" id="Layer_1" xmlns="http://www.w3.org/2000/svg" xmlns:xlink="http://www.w3.org/1999/xlink" x="0px" y="0px"
	 viewBox="0 0 60 60" style="enable-background:new 0 0 60 60;" xml:space="preserve">
<style type="text/css">
	.st0{fill-rule:evenodd;clip-rule:evenodd;stroke:#000000;stroke-width:1.5;stroke-linecap:round;stroke-linejoin:round;}
	
		.st1{fill-rule:evenodd;clip-rule:evenodd;fill:#FFFFFF;stroke:#FFFFFF;stroke-width:1.5;stroke-linecap:round;stroke-linejoin:round;}
	
		.st2{fill-rule:evenodd;clip-rule:evenodd;fill:#FFFFFF;stroke:#FFFFFF;stroke-width:1.5;stroke-linecap:round;stroke-linejoin:round;stroke-miterlimit:3.9999;}
	.st3{fill-rule:evenodd;clip-rule:evenodd;fill:#FFFFFF;}
</style>
<g>
	<path class="st0" d="M30.75,6.5c18.51,1.76,29.08,14.1,28.2,51.11H18.41c0-15.86,17.62-11.46,14.1-37.01"/>
	<path class="st0" d="M34.27,20.6c0.67,5.13-9.78,12.99-14.1,15.86c-5.29,3.52-4.97,7.65-8.81,7.05c-1.84-1.66,2.49-5.36,0-5.29
		c-1.76,0,0.33,2.17-1.76,3.52c-1.76,0-7.06,1.76-7.05-7.05c0-3.52,10.57-21.15,10.57-21.15s3.33-3.35,3.52-6.17
		c-1.29-1.75-0.88-3.52-0.88-5.29c1.76-1.76,5.29,4.41,5.29,4.41h3.52c0,0,1.37-3.51,4.41-5.29c1.76,0,1.76,5.29,1.76,5.29"/>
	<path class="st1" d="M8.72,33.82c0,0.49-0.39,0.88-0.88,0.88s-0.88-0.39-0.88-0.88c0-0.49,0.39-0.88,0.88-0.88
		S8.72,33.33,8.72,33.82z"/>
	<path class="st2" d="M18.29,16.63c-0.73,1.26-1.66,2.09-2.08,1.85s-0.17-1.47,0.56-2.73s1.66-2.09,2.08-1.85
		C19.27,14.15,19.02,15.37,18.29,16.63z"/>
	<path class="st3" d="M35.24,7.21l-0.79,2.56l0.88,0.26c5.55,1.76,9.96,4.39,13.92,11.9s5.73,18.17,4.85,35.69l-0.09,0.88h3.97
		l0.09-0.88c0.88-17.73-1.55-29.7-5.73-37.61S42.14,8.3,36.14,7.38L35.24,7.21z"/>
</g>
</svg>
