<?xml version="1.0" encoding="utf-8"?>
<!-- Generator: Adobe Illustrator 25.4.1, SVG Export Plug-In . SVG Version: 6.00 Build 0)  -->
<svg version="1.1" id="Layer_1" xmlns="http://www.w3.org/2000/svg" xmlns:xlink="http://www.w3.org/1999/xlink" x="0px" y="0px"
	 viewBox="0 0 60 60" style="enable-background:new 0 0 60 60;" xml:space="preserve">
<style type="text/css">
	.st0{fill:#FFFFFF;stroke:#000000;stroke-width:1.5;stroke-linecap:round;}
</style>
<path class="st0" d="M30,1.5c-4.13,0-7.48,3.35-7.48,7.48c0,1.66,0.54,3.2,1.46,4.45c-3.64,2.09-6.13,6-6.13,10.5
	c0,3.79,1.76,7.18,4.5,9.4C16.75,35.31,8.51,43.7,8.51,58.5h42.98c0-14.8-8.24-23.19-13.85-25.17c2.75-2.22,4.5-5.61,4.5-9.4
	c0-4.5-2.49-8.41-6.13-10.5c0.92-1.25,1.46-2.78,1.46-4.45C37.48,4.85,34.13,1.5,30,1.5z"/>
</svg>
