<?xml version="1.0" encoding="utf-8"?>
<!-- Generator: Adobe Illustrator 25.4.1, SVG Export Plug-In . SVG Version: 6.00 Build 0)  -->
<svg version="1.1" id="Layer_1" xmlns="http://www.w3.org/2000/svg" xmlns:xlink="http://www.w3.org/1999/xlink" x="0px" y="0px"
	 viewBox="0 0 60 60" style="enable-background:new 0 0 60 60;" xml:space="preserve">
<style type="text/css">
	.st0{stroke:#000000;stroke-width:1.5;stroke-linecap:round;}
</style>
<path class="st0" d="M30,1.85c-4.08,0-7.38,3.3-7.38,7.38c0,1.64,0.54,3.16,1.44,4.39C20.46,15.69,18,19.55,18,24
	c0,3.75,1.74,7.09,4.45,9.29C16.91,35.24,8.77,43.53,8.77,58.15h42.46c0-14.62-8.14-22.91-13.68-24.87C40.26,31.09,42,27.75,42,24
	c0-4.45-2.46-8.31-6.06-10.38c0.9-1.24,1.44-2.75,1.44-4.39C37.38,5.15,34.08,1.85,30,1.85z"/>
</svg>
