<?xml version="1.0" encoding="utf-8"?>
<!-- Generator: Adobe Illustrator 25.4.1, SVG Export Plug-In . SVG Version: 6.00 Build 0)  -->
<svg version="1.1" id="Layer_1" xmlns="http://www.w3.org/2000/svg" xmlns:xlink="http://www.w3.org/1999/xlink" x="0px" y="0px"
	 viewBox="0 0 60 60" style="enable-background:new 0 0 60 60;" xml:space="preserve">
<style type="text/css">
	.st0{fill:#FFFFFF;stroke:#000000;stroke-width:1.5;stroke-linejoin:round;}
	.st1{fill:none;stroke:#000000;stroke-width:1.5;stroke-linejoin:round;}
</style>
<g>
	<path class="st0" d="M9.03,35.24c13.2-2.33,32.61-2.33,41.93,0l3.88-19.41L43.2,33.69l-0.47-21.9l-8.08,21.12L30,10.39l-4.66,22.52
		l-8.08-21.12l-0.47,21.9L5.15,15.83L9.03,35.24z"/>
	<path class="st0" d="M9.03,35.24c0,3.11,2.33,3.11,3.88,6.21c1.55,2.33,1.55,1.55,0.78,5.44c-2.33,1.55-1.55,3.88-1.55,3.88
		c-2.33,2.33,0,3.88,0,3.88c10.09,1.55,25.63,1.55,35.72,0c0,0,2.33-1.55,0-3.88c0,0,0.78-2.33-1.55-3.88
		c-0.78-3.88-0.78-3.11,0.78-5.44c1.55-3.11,3.88-3.11,3.88-6.21C37.77,32.91,22.23,32.91,9.03,35.24z"/>
	<path class="st1" d="M12.92,41.45c5.44-1.55,28.73-1.55,34.17,0"/>
	<path class="st1" d="M13.69,46.89c9.32-1.55,23.3-1.55,32.61,0"/>
	<circle class="st0" cx="4.37" cy="13.5" r="3.11"/>
	<circle class="st0" cx="16.8" cy="8.84" r="3.11"/>
	<circle class="st0" cx="30" cy="7.29" r="3.11"/>
	<circle class="st0" cx="43.2" cy="8.84" r="3.11"/>
	<circle class="st0" cx="55.63" cy="13.5" r="3.11"/>
</g>
</svg>
