<?xml version="1.0" encoding="utf-8"?>
<!-- Generator: Adobe Illustrator 25.4.1, SVG Export Plug-In . SVG Version: 6.00 Build 0)  -->
<svg version="1.1" id="Layer_1" xmlns="http://www.w3.org/2000/svg" xmlns:xlink="http://www.w3.org/1999/xlink" x="0px" y="0px"
	 viewBox="0 0 60 60" style="enable-background:new 0 0 60 60;" xml:space="preserve">
<style type="text/css">
	.st0{fill-rule:evenodd;clip-rule:evenodd;stroke:#000000;stroke-width:1.5;stroke-linejoin:round;}
	.st1{fill-rule:evenodd;clip-rule:evenodd;stroke:#000000;stroke-width:1.5;}
	.st2{fill:none;stroke:#FFFFFF;stroke-linecap:round;}
</style>
<g>
	<path class="st0" d="M4.53,58.3h50.93v-5.66H4.53V58.3z"/>
	<path class="st0" d="M11.14,45.09l2.83-4.72h32.07l2.83,4.72H11.14z"/>
	<path class="st0" d="M10.19,52.64v-7.55h39.62v7.55H10.19z"/>
	<path class="st1" d="M13.96,40.38V15.85h32.07v24.52H13.96z"/>
	<path class="st0" d="M13.96,15.85l-5.66-4.72h43.39l-5.66,4.72H13.96z"/>
	<path class="st0" d="M8.31,11.14V1.7h7.55v3.77h9.43V1.7h9.43v3.77h9.43V1.7h7.55v9.43H8.31z"/>
	<path class="st2" d="M10.19,51.69h39.62l0,0"/>
	<path class="st2" d="M12.08,44.15h35.84"/>
	<path class="st2" d="M13.96,40.38h32.07"/>
	<path class="st2" d="M13.96,15.85h32.07"/>
	<path class="st2" d="M8.31,11.14h43.39"/>
</g>
</svg>
